<svg xmlns="http://www.w3.org/2000/svg" viewBox="0 0 476.02 166.25"><defs><style>.cls-1{fill:#0071bc;}.cls-2{font-size:14.12px;fill:#333;font-family:AvenirLTStd-Medium, Avenir LT Std;font-weight:500;}</style></defs><g id="Layer_2" data-name="Layer 2"><g id="Layer_1-2" data-name="Layer 1"><rect x="21.64" width="21.64" height="129.82"/><rect x="108.19" y="21.64" width="21.64" height="108.19"/><rect x="151.46" y="21.64" width="21.64" height="108.19"/><rect x="194.73" y="21.64" width="21.64" height="108.19"/><rect x="324.56" y="21.64" width="21.64" height="108.19"/><rect x="367.83" y="21.64" width="21.64" height="108.19"/><rect x="411.11" y="21.64" width="21.64" height="108.19"/><rect x="238.01" y="21.64" width="21.64" height="108.19"/><rect x="238.01" y="21.64" width="64.91" height="21.64"/><rect x="324.56" y="64.91" width="64.91" height="21.64"/><rect x="411.11" y="108.19" width="64.91" height="21.64"/><rect x="411.11" y="64.91" width="64.91" height="21.64"/><rect x="238.01" y="108.19" width="64.91" height="21.64"/><path d="M302.92,86v22.48H281.28V64.91h.54A21.1,21.1,0,0,1,302.92,86Z"/><rect x="129.82" y="21.64" width="21.64" height="108.19" transform="translate(-18.33 60.18) rotate(-22.71)"/><polygon points="86.55 36.96 48.15 75.32 43.27 80.2 32.85 90.62 21.64 79.41 21.64 71.24 71.22 21.64 86.55 36.96"/><rect class="cls-1" y="129.82" width="21.64" height="21.64"/><path class="cls-1" d="M86.55,0h21.64a0,0,0,0,1,0,0V0A21.64,21.64,0,0,1,86.55,21.64h0a0,0,0,0,1,0,0V0A0,0,0,0,1,86.55,0Z"/><polygon points="32.85 60.02 21.64 71.24 21.64 79.41 43.27 101.05 72.12 129.82 86.55 113.72 32.85 60.02"/><text class="cls-2" transform="translate(108.65 162.27)">Websites &amp; Mobile Apps</text></g></g></svg>